<?xml version="1.0" standalone="no"?>
<!DOCTYPE svg PUBLIC "-//W3C//DTD SVG 20010904//EN"
 "http://www.w3.org/TR/2001/REC-SVG-20010904/DTD/svg10.dtd">
<svg version="1.0" xmlns="http://www.w3.org/2000/svg"
 width="700.000000pt" height="700.000000pt" viewBox="0 0 700.000000 700.000000"
 preserveAspectRatio="xMidYMid meet">
<metadata>
Created by potrace 1.14, written by Peter Selinger 2001-2017
</metadata>
<g transform="translate(0.000000,700.000000) scale(0.100000,-0.100000)"
fill="#000000" stroke="none">
<path d="M1053 6285 c-124 -34 -244 -128 -297 -233 -60 -118 -56 29 -56 -2314
0 -1540 3 -2162 11 -2200 34 -160 161 -300 320 -349 53 -17 94 -19 330 -19
l269 0 0 -235 0 -235 470 0 470 0 0 235 0 235 930 0 930 0 0 -235 0 -235 470
0 470 0 0 235 0 235 269 0 c236 0 277 2 330 19 86 27 140 61 204 130 61 66 99
138 116 219 8 38 11 660 11 2200 0 2343 4 2196 -56 2314 -34 67 -125 158 -192
192 -118 60 52 56 -2557 55 -2024 0 -2398 -2 -2442 -14z m2538 -714 c294 -51
608 -194 844 -385 l70 -56 458 0 c361 0 464 -3 490 -13 83 -35 147 -130 147
-217 0 -87 -64 -182 -147 -217 -24 -10 -98 -13 -298 -13 -164 0 -265 -4 -265
-10 0 -5 16 -38 34 -72 89 -161 172 -434 196 -640 18 -150 8 -421 -20 -563
-29 -149 -92 -334 -159 -470 l-56 -114 276 -3 276 -3 49 -30 c127 -79 150
-257 46 -357 -79 -76 -53 -73 -571 -76 l-464 -3 -81 -64 c-231 -180 -510 -307
-801 -365 -154 -31 -436 -38 -595 -16 -407 57 -751 224 -1044 506 -216 208
-365 436 -465 710 -252 694 -62 1485 477 1991 293 275 677 454 1073 498 129
15 395 6 530 -18z"/>
<path d="M3065 5119 c-297 -43 -566 -180 -786 -399 -194 -193 -317 -416 -381
-690 -28 -122 -36 -374 -15 -505 35 -216 123 -432 247 -607 124 -174 344 -359
530 -446 514 -238 1080 -165 1514 196 337 281 530 752 486 1187 -33 336 -161
613 -393 852 -213 219 -482 360 -782 408 -98 16 -322 18 -420 4z m297 -930
c88 -18 171 -65 236 -133 92 -95 132 -193 132 -320 -1 -265 -201 -465 -467
-466 -132 0 -243 49 -336 149 -173 188 -168 462 12 642 114 114 268 160 423
128z"/>
</g>
</svg>
