<svg width="580" height="100" viewBox="0 0 580 100" fill="none" xmlns="http://www.w3.org/2000/svg">
<path d="M154.526 55.7808L161.631 31.8736H172.643L157.191 76.2778L156.338 78.3026C154.041 83.3232 150.252 85.8335 144.971 85.8335C143.479 85.8335 141.963 85.6086 140.424 85.1586V77.379L141.987 77.4145C143.929 77.4145 145.373 77.1185 146.32 76.5264C147.291 75.9344 148.049 74.9515 148.594 73.578L149.802 70.4164L136.338 31.8736H147.386L154.526 55.7808Z" fill="white"/>
<path d="M193.886 71.0203C188.25 71.0203 183.655 69.2915 180.103 65.8339C176.574 62.3763 174.81 57.7701 174.81 52.0153V51.0207C174.81 47.1605 175.556 43.7147 177.048 40.6834C178.54 37.6284 180.648 35.2838 183.371 33.6497C186.118 31.992 189.244 31.1631 192.749 31.1631C198.007 31.1631 202.139 32.8209 205.147 36.1364C208.178 39.4519 209.694 44.1528 209.694 50.2391V54.4309H185.218C185.55 56.9412 186.545 58.9542 188.202 60.4699C189.884 61.9855 192.003 62.7434 194.561 62.7434C198.516 62.7434 201.607 61.3106 203.833 58.445L208.877 64.0933C207.338 66.272 205.254 67.9771 202.625 69.2086C199.996 70.4164 197.083 71.0203 193.886 71.0203ZM192.714 39.4756C190.677 39.4756 189.019 40.1624 187.741 41.5359C186.485 42.9095 185.68 44.8751 185.325 47.4328H199.605V46.6158C199.558 44.3423 198.942 42.5898 197.758 41.3583C196.574 40.1032 194.893 39.4756 192.714 39.4756Z" fill="white"/>
<path d="M237.829 70.3098C237.355 69.3862 237.012 68.2376 236.798 66.8641C234.312 69.6349 231.079 71.0203 227.101 71.0203C223.335 71.0203 220.209 69.9309 217.722 67.7522C215.259 65.5734 214.028 62.8262 214.028 59.5107C214.028 55.4374 215.532 52.3113 218.539 50.1326C221.571 47.9538 225.94 46.8526 231.647 46.8289H236.372V44.6265C236.372 42.8503 235.91 41.4294 234.987 40.3637C234.087 39.298 232.654 38.7651 230.688 38.7651C228.96 38.7651 227.598 39.1796 226.603 40.0084C225.632 40.8373 225.147 41.9741 225.147 43.4187H214.88C214.88 41.1925 215.567 39.1322 216.941 37.2376C218.314 35.343 220.256 33.8629 222.767 32.7972C225.277 31.7078 228.095 31.1631 231.221 31.1631C235.958 31.1631 239.711 32.3591 242.482 34.751C245.277 37.1192 246.674 40.4584 246.674 44.7686V61.429C246.698 65.0761 247.207 67.835 248.201 69.7059V70.3098H237.829ZM229.338 63.1696C230.854 63.1696 232.251 62.8381 233.53 62.175C234.809 61.4882 235.756 60.5764 236.372 59.4397V52.8324H232.536C227.397 52.8324 224.661 54.6085 224.33 58.1609L224.294 58.7647C224.294 60.0436 224.744 61.0974 225.644 61.9263C226.544 62.7552 227.775 63.1696 229.338 63.1696Z" fill="white"/>
<path d="M276.158 41.5004C274.761 41.3109 273.529 41.2162 272.464 41.2162C268.58 41.2162 266.034 42.5306 264.826 45.1593V70.3098H254.56V31.8736H264.258L264.542 36.4561C266.602 32.9274 269.456 31.1631 273.103 31.1631C274.24 31.1631 275.306 31.3171 276.3 31.6249L276.158 41.5004Z" fill="white"/>
<path d="M290.581 31.8736L290.9 36.314C293.648 32.8801 297.33 31.1631 301.948 31.1631C306.021 31.1631 309.053 32.3591 311.042 34.751C313.031 37.1429 314.05 40.7189 314.097 45.479V70.3098H303.831V45.7277C303.831 43.5489 303.357 41.9741 302.41 41.0031C301.463 40.0084 299.888 39.5111 297.685 39.5111C294.796 39.5111 292.629 40.7426 291.185 43.2055V70.3098H280.918V31.8736H290.581Z" fill="white"/>
<path d="M322.445 65.2655C322.445 63.6314 322.99 62.3052 324.079 61.2869C325.192 60.2686 326.578 59.7594 328.235 59.7594C329.917 59.7594 331.302 60.2686 332.392 61.2869C333.505 62.3052 334.061 63.6314 334.061 65.2655C334.061 66.8759 333.517 68.1903 332.427 69.2086C331.338 70.2033 329.941 70.7006 328.235 70.7006C326.554 70.7006 325.169 70.2033 324.079 69.2086C322.99 68.1903 322.445 66.8759 322.445 65.2655Z" fill="white"/>
<path d="M345.571 70.3098V39.4045H339.852V31.8736H345.571V30.0974C345.618 25.2662 347.098 21.5481 350.011 18.9431C352.948 16.3144 357.08 15 362.409 15C365.606 15 369.49 15.6986 374.061 17.0959L372.569 25.586C370.248 24.8992 368.448 24.461 367.169 24.2716C365.89 24.0584 364.517 23.9519 363.048 23.9519C358.264 23.9519 355.873 26.0714 355.873 30.3106V31.8736H363.439V39.4045H355.873V70.3098H345.571ZM378.856 70.3098H368.554V31.8736H378.856V70.3098Z" fill="white"/>
<path d="M396.795 31.8736L397.115 36.314C399.862 32.8801 403.545 31.1631 408.163 31.1631C412.236 31.1631 415.268 32.3591 417.257 34.751C419.246 37.1429 420.265 40.7189 420.312 45.479V70.3098H410.046V45.7277C410.046 43.5489 409.572 41.9741 408.625 41.0031C407.677 40.0084 406.103 39.5111 403.9 39.5111C401.011 39.5111 398.844 40.7426 397.399 43.2055V70.3098H387.133V31.8736H396.795Z" fill="white"/>
<path d="M450.4 70.3098C449.927 69.3862 449.583 68.2376 449.37 66.8641C446.883 69.6349 443.651 71.0203 439.672 71.0203C435.907 71.0203 432.781 69.9309 430.294 67.7522C427.831 65.5734 426.6 62.8262 426.6 59.5107C426.6 55.4374 428.103 52.3113 431.111 50.1326C434.142 47.9538 438.512 46.8526 444.219 46.8289H448.944V44.6265C448.944 42.8503 448.482 41.4294 447.558 40.3637C446.658 39.298 445.226 38.7651 443.26 38.7651C441.531 38.7651 440.169 39.1796 439.175 40.0084C438.204 40.8373 437.718 41.9741 437.718 43.4187H427.452C427.452 41.1925 428.139 39.1322 429.512 37.2376C430.886 35.343 432.828 33.8629 435.338 32.7972C437.849 31.7078 440.667 31.1631 443.793 31.1631C448.529 31.1631 452.283 32.3591 455.054 34.751C457.848 37.1192 459.245 40.4584 459.245 44.7686V61.429C459.269 65.0761 459.778 67.835 460.773 69.7059V70.3098H450.4ZM441.91 63.1696C443.426 63.1696 444.823 62.8381 446.102 62.175C447.381 61.4882 448.328 60.5764 448.944 59.4397V52.8324H445.107C439.968 52.8324 437.233 54.6085 436.901 58.1609L436.866 58.7647C436.866 60.0436 437.316 61.0974 438.216 61.9263C439.116 62.7552 440.347 63.1696 441.91 63.1696Z" fill="white"/>
<path d="M476.581 31.8736L476.901 36.314C479.648 32.8801 483.33 31.1631 487.948 31.1631C492.022 31.1631 495.053 32.3591 497.042 34.751C499.032 37.1429 500.05 40.7189 500.097 45.479V70.3098H489.831V45.7277C489.831 43.5489 489.357 41.9741 488.41 41.0031C487.463 40.0084 485.888 39.5111 483.686 39.5111C480.796 39.5111 478.629 40.7426 477.185 43.2055V70.3098H466.919V31.8736H476.581Z" fill="white"/>
<path d="M523.898 62.7434C525.793 62.7434 527.332 62.2224 528.516 61.1803C529.7 60.1383 530.316 58.7529 530.363 57.0241H539.99C539.966 59.6292 539.256 62.0211 537.859 64.1998C536.461 66.3549 534.543 68.0363 532.104 69.2441C529.688 70.4282 527.012 71.0203 524.076 71.0203C518.581 71.0203 514.247 69.2797 511.074 65.7984C507.901 62.2934 506.314 57.4622 506.314 51.3048V50.6299C506.314 44.7093 507.889 39.9847 511.039 36.4561C514.188 32.9274 518.51 31.1631 524.005 31.1631C528.812 31.1631 532.66 32.5367 535.55 35.2838C538.463 38.0073 539.943 41.6425 539.99 46.1895H530.363C530.316 44.2002 529.7 42.5898 528.516 41.3583C527.332 40.1032 525.769 39.4756 523.827 39.4756C521.435 39.4756 519.623 40.3518 518.392 42.1043C517.184 43.8331 516.58 46.6513 516.58 50.5589V51.6246C516.58 55.5795 517.184 58.4214 518.392 60.1502C519.6 61.879 521.435 62.7434 523.898 62.7434Z" fill="white"/>
<path d="M563.542 71.0203C557.906 71.0203 553.311 69.2915 549.759 65.8339C546.23 62.3763 544.466 57.7701 544.466 52.0153V51.0207C544.466 47.1605 545.212 43.7147 546.704 40.6834C548.196 37.6284 550.304 35.2838 553.027 33.6497C555.774 31.992 558.9 31.1631 562.405 31.1631C567.663 31.1631 571.795 32.8209 574.803 36.1364C577.834 39.4519 579.35 44.1528 579.35 50.2391V54.4309H554.874C555.206 56.9412 556.201 58.9542 557.858 60.4699C559.54 61.9855 561.659 62.7434 564.217 62.7434C568.172 62.7434 571.262 61.3106 573.489 58.445L578.533 64.0933C576.993 66.272 574.909 67.9771 572.281 69.2086C569.652 70.4164 566.739 71.0203 563.542 71.0203ZM562.37 39.4756C560.333 39.4756 558.675 40.1624 557.396 41.5359C556.141 42.9095 555.336 44.8751 554.981 47.4328H569.261V46.6158C569.214 44.3423 568.598 42.5898 567.414 41.3583C566.23 40.1032 564.548 39.4756 562.37 39.4756Z" fill="white"/>
<path fill-rule="evenodd" clip-rule="evenodd" d="M100 50C100 43.456 98.698 36.912 96.194 30.866C93.69 24.82 89.983 19.272 85.355 14.645C80.728 10.017 75.18 6.31 69.134 3.806C63.088 1.302 56.544 0 50 0C43.456 0 36.912 1.302 30.866 3.806C24.82 6.31 19.272 10.017 14.645 14.645C10.017 19.272 6.31 24.82 3.806 30.866C1.302 36.912 0 43.456 0 50C0 56.544 1.302 63.088 3.806 69.134C6.31 75.18 10.017 80.728 14.645 85.355C19.272 89.983 24.82 93.69 30.866 96.194C36.912 98.698 43.456 100 50 100C56.544 100 63.088 98.698 69.134 96.194C75.18 93.69 80.728 89.983 85.355 85.355C89.983 80.728 93.69 75.18 96.194 69.134C98.698 63.088 100 56.544 100 50Z" fill="url(#paint0_linear)"/>
<path fill-rule="evenodd" clip-rule="evenodd" d="M47.4159 27.425H52.5839V72.577H47.4159V27.425Z" fill="white"/>
<path fill-rule="evenodd" clip-rule="evenodd" d="M44.4829 48.665V43.269C40.3379 41.23 37.4839 36.964 37.4839 32.032C37.4839 25.122 43.0879 19.518 49.9999 19.518C57.7609 19.518 63.3649 25.122 63.3649 32.032C63.3649 33.774 63.0069 35.433 62.1479 37.404L59.9409 30.229L55.5169 31.612L59.4399 46.544L74.6699 40.941L72.8189 36.574L67.1389 38.518C68.1669 36.289 68.3689 34.65 68.3689 32.032C68.3689 22.356 60.5249 14.512 49.9999 14.512C40.3239 14.512 32.4799 22.356 32.4799 32.032C32.4799 39.78 37.5109 46.353 44.4829 48.665Z" fill="white"/>
<path fill-rule="evenodd" clip-rule="evenodd" d="M55.517 51.337V56.733C59.662 58.773 62.516 63.038 62.516 67.97C62.516 74.88 56.912 80.484 50 80.484C42.239 80.484 36.635 74.88 36.635 67.97C36.635 66.228 36.993 64.569 37.852 62.598L40.059 69.773L44.483 68.39L40.56 53.458L25.33 59.062L27.181 63.428L32.861 61.484C31.833 63.713 31.631 65.352 31.631 67.97C31.631 77.646 39.475 85.49 50 85.49C59.676 85.49 67.52 77.646 67.52 67.97C67.52 60.222 62.489 53.649 55.517 51.337Z" fill="white"/>
<defs>
<linearGradient id="paint0_linear" x1="-50" y1="50" x2="50" y2="150" gradientUnits="userSpaceOnUse">
<stop stop-color="#0077FC"/>
<stop offset="1" stop-color="#095EB5"/>
</linearGradient>
</defs>
</svg>
