<svg clip-rule="evenodd" fill-rule="evenodd" stroke-linejoin="round" stroke-miterlimit="1.41421" viewBox="0 0 560 400" xmlns="http://www.w3.org/2000/svg" xmlns:xlink="http://www.w3.org/1999/xlink"><linearGradient id="a" gradientTransform="matrix(424.031 244.814 -244.814 424.031 38.0602 127.366)" gradientUnits="userSpaceOnUse" x1="0" x2="1" y1="0" y2="0"><stop offset="0" stop-color="#0077fd"/><stop offset="1" stop-color="#095eb4"/></linearGradient><g transform="matrix(.612745 0 0 .612745 126.752 46.9363)"><circle cx="250.1" cy="249.8" fill="url(#a)" r="244.8"/><g fill="#fff"><path d="m240.3 156.3h22v198.9h-22z"/><path d="m348.6 195.8-28.5 9.2c5.5-13.9 6.1-29.2 6.1-31.1v-.3c0-42.5-34.6-77.1-77.1-77.1s-77.1 34.6-77.1 77.1c0 25.6 12.6 49.4 33.8 63.8l24.5 18v-27.3l-11.7-8.6-.3-.2c-15.2-10.3-24.3-27.4-24.3-45.7 0-30.4 24.7-55.1 55.1-55.1 30.3 0 55 24.6 55.1 55-.2 4.2-1.3 15.4-4.8 24l-9-32.2-21.2 5.9 18.9 67.3 67.2-21.7z" fill-rule="nonzero"/><path d="m286.4 269.3-14.1-10.4v27.3l1.2.9.1.1c20.4 14.6 30.7 31.7 30.7 50.8 0 30.4-24.7 55.1-55.1 55.1s-55.1-24.7-55.1-55.1c0-10.1 4.1-21.2 9.7-30.2l5 37.4 21.8-2.9-9.2-69-70.9 13.3 4.1 21.6 25.7-4.8c-5.4 10.7-8.2 22.4-8.2 34.6 0 42.5 34.6 77.1 77.1 77.1s77.1-34.6 77.1-77.1c-.1-26.2-13.9-50-39.9-68.7z" fill-rule="nonzero"/></g></g></svg>